<svg xmlns="http://www.w3.org/2000/svg" width="120" height="160" viewBox="0 0 120 160">
  <!-- trunk -->
  <path d="M60,160 C56,110 52,76 48,42" stroke="#7a4b24" stroke-width="9" stroke-linecap="round" fill="none"/>
  <!-- fronds -->
  <g fill="#2f9a52">
    <path d="M48,40 C22,22 0,22 -2,34 C20,30 38,36 48,52 Z"/>
    <path d="M48,40 C30,12 12,4 -4,6 C16,16 34,30 48,52 Z"/>
    <path d="M48,40 C74,20 100,22 110,34 C86,30 62,36 48,52 Z"/>
    <path d="M48,40 C66,12 86,6 102,10 C80,18 60,30 48,52 Z"/>
    <path d="M48,40 C50,16 44,0 30,-2 C40,18 44,34 48,52 Z"/>
  </g>
  <circle cx="48" cy="42" r="6" fill="#5e3a1c"/>
  <ellipse cx="44" cy="48" r="3.5" fill="#7a4b24"/>
</svg>
