<?xml version="1.0" encoding="UTF-8" standalone="no"?>
<!DOCTYPE svg PUBLIC "-//W3C//DTD SVG 1.1//EN" "http://www.w3.org/Graphics/SVG/1.1/DTD/svg11.dtd">
<svg width="100%" height="100%" viewBox="0 0 2368 1129" version="1.1" xmlns="http://www.w3.org/2000/svg" xmlns:xlink="http://www.w3.org/1999/xlink" xml:space="preserve" xmlns:serif="http://www.serif.com/" style="fill-rule:evenodd;clip-rule:evenodd;stroke-linecap:round;stroke-linejoin:round;stroke-miterlimit:1.5;">
    <g transform="matrix(1,0,0,1,-858.641974,-1401.980596)">
        <g id="Deck">
            <g transform="matrix(-1,0,0,1,3502.672824,0)">
                <path d="M423.129,2480.315C423.129,2480.315 402.814,2466.525 661.985,2074.947C819.805,1836.499 1177.033,1575.716 1467.872,1548.168L1467.872,2480.315L423.129,2480.315Z" style="fill:rgb(121,58,12);"/>
            </g>
            <g transform="matrix(-1,0,0,1,3729.444373,0)">
                <path d="M1679.04,1426.981L1679.04,1545.568C1493.418,1585.097 1236.011,1677.222 1018.457,1915.034C791.847,2162.746 715.491,2322.199 649.528,2480.315L527.881,2480.315" style="fill:none;stroke:rgb(73,28,0);stroke-width:33.33px;"/>
            </g>
            <g>
                <g transform="matrix(0.802309,0.199809,0.199809,0.79805,123.352719,-191.29004)">
                    <path d="M3159.503,2422.478L3039.332,2516.389" style="fill:none;stroke:rgb(57,24,0);stroke-width:50px;"/>
                </g>
                <g transform="matrix(0.802309,0.199809,0.199809,0.79805,84.527832,-267.984579)">
                    <path d="M3162.339,2411.09L3055.617,2509.642" style="fill:none;stroke:rgb(57,24,0);stroke-width:50px;"/>
                </g>
                <g transform="matrix(0.802309,0.199809,0.199809,0.79805,32.332937,-344.679118)">
                    <path d="M3162.339,2411.09L3061.283,2502.885" style="fill:none;stroke:rgb(57,24,0);stroke-width:50px;"/>
                </g>
                <g transform="matrix(0.82542,0.04802,0.34392,0.747347,-440.126917,170.659136)">
                    <path d="M3159.503,2422.478L3056.359,2509.594" style="fill:none;stroke:rgb(57,24,0);stroke-width:50px;"/>
                </g>
                <g transform="matrix(0.82542,0.04802,0.34392,0.747347,-492.462915,102.465533)">
                    <path d="M3162.339,2411.09L3058.906,2506.58" style="fill:none;stroke:rgb(57,24,0);stroke-width:50px;"/>
                </g>
                <g transform="matrix(0.82542,0.04802,0.34392,0.747347,-557.938395,36.743993)">
                    <path d="M3193.703,2373.442L3078.878,2489.618" style="fill:none;stroke:rgb(57,24,0);stroke-width:50px;"/>
                </g>
                <g transform="matrix(0.820971,-0.098135,0.470193,0.675076,-916.667421,568.724603)">
                    <path d="M3194.84,2383.433L3063.865,2512.068" style="fill:none;stroke:rgb(57,24,0);stroke-width:50px;"/>
                </g>
                <g transform="matrix(0.820971,-0.098135,0.470193,0.675076,-980.197789,510.816775)">
                    <path d="M3184.608,2365.412L3064.914,2501.173" style="fill:none;stroke:rgb(57,24,0);stroke-width:50px;"/>
                </g>
                <g transform="matrix(0.820971,-0.098135,0.470193,0.675076,-1056.226693,457.656968)">
                    <path d="M3192.032,2320.732L3084.506,2445.639" style="fill:none;stroke:rgb(57,24,0);stroke-width:50px;"/>
                </g>
                <g transform="matrix(0.773198,-0.292896,0.618886,0.542022,-1380.158944,1280.235146)">
                    <path d="M3194.84,2383.433L3063.865,2512.068" style="fill:none;stroke:rgb(57,24,0);stroke-width:50px;"/>
                </g>
                <g transform="matrix(0.773198,-0.292896,0.618886,0.542022,-1455.761949,1239.325371)">
                    <path d="M3184.608,2365.412L3064.914,2501.173" style="fill:none;stroke:rgb(57,24,0);stroke-width:50px;"/>
                </g>
                <g transform="matrix(0.773198,-0.292896,0.618886,0.542022,-1542.352799,1206.032968)">
                    <path d="M3192.032,2320.732L3084.506,2445.639" style="fill:none;stroke:rgb(57,24,0);stroke-width:50px;"/>
                </g>
                <g transform="matrix(0.709845,-0.423962,0.704355,0.425079,-1695.43031,1819.806819)">
                    <path d="M3194.84,2383.433L3063.865,2512.068" style="fill:none;stroke:rgb(57,24,0);stroke-width:50px;"/>
                </g>
                <g transform="matrix(0.709845,-0.423962,0.704355,0.425079,-1777.036364,1792.790599)">
                    <path d="M3184.608,2365.412L3064.914,2501.173" style="fill:none;stroke:rgb(57,24,0);stroke-width:50px;"/>
                </g>
            </g>
            <g transform="matrix(-1,0,0,1,3729.444373,13.315018)">
                <path d="M527.881,2480.315C527.881,2480.315 553.045,2400.72 685.577,2158.728C822.932,1907.932 1148.947,1512.782 1679.04,1426.981" style="fill:none;stroke:rgb(57,24,0);stroke-width:50px;"/>
            </g>
            <g transform="matrix(-1,0,0,1,3729.444373,0)">
                <path d="M527.881,2480.315C527.881,2480.315 553.045,2400.72 685.577,2158.728C822.932,1907.932 1148.947,1512.782 1679.04,1426.981" style="fill:none;stroke:rgb(73,28,0);stroke-width:50px;"/>
            </g>
        </g>
        <g id="Oberdeck" transform="matrix(1,0,0,1,0,644.946357)">
            <g transform="matrix(-0.843212,0,0,0.40104,3262.991356,884.683361)">
                <path d="M423.129,2480.315C423.129,2480.315 402.814,2466.525 661.985,2074.947C819.805,1836.499 1165.723,1575.716 1456.562,1548.168L1456.562,2480.315L423.129,2480.315Z" style="fill:rgb(131,81,35);"/>
            </g>
            <g transform="matrix(-1.843171,0,0,1.795,5145.162535,-1285.295619)">
                <path d="M1679.04,1426.981L1679.04,1545.568C1492.935,1548.626 1330.528,1638.708 1234.066,1748.165" style="fill:none;stroke:rgb(49,21,6);stroke-width:36.65px;"/>
            </g>
            <g transform="matrix(1.843171,0,0,1.795,-1728.841954,-1285.295619)">
                <g transform="matrix(0.773198,-0.292896,0.618886,0.542022,-1455.761949,1239.325371)">
                    <path d="M3184.608,2365.412L3064.914,2501.173" style="fill:none;stroke:rgb(57,24,0);stroke-width:54.3px;"/>
                </g>
                <g transform="matrix(0.709845,-0.423962,0.704355,0.425079,-1695.43031,1819.806819)">
                    <path d="M3194.84,2383.433L3084.534,2491.238" style="fill:none;stroke:rgb(57,24,0);stroke-width:54.25px;"/>
                </g>
                <g transform="matrix(0.709845,-0.423962,0.704355,0.425079,-1777.036364,1792.790599)">
                    <path d="M3139.157,2270.34L3014.107,2396.364" style="fill:none;stroke:rgb(57,24,0);stroke-width:54.25px;"/>
                </g>
            </g>
            <g transform="matrix(-1.843171,0,0,1.795,5145.162535,-1266.101927)">
                <path d="M1083.486,1726.786C1178.999,1580.639 1417.998,1425.799 1679.04,1426.981" style="fill:none;stroke:rgb(57,24,0);stroke-width:54.97px;"/>
            </g>
            <g transform="matrix(-1.843171,0,0,1.795,5145.162535,-1285.295619)">
                <path d="M1083.486,1726.786C1178.999,1580.639 1417.998,1425.799 1679.04,1426.981" style="fill:none;stroke:rgb(73,28,0);stroke-width:54.97px;"/>
            </g>
        </g>
        <g transform="matrix(-1,0,0,1,4085.205254,0)">
            <g id="Deck1" serif:id="Deck">
                <g transform="matrix(-1,0,0,1,3502.672824,0)">
                    <path d="M423.129,2480.315C423.129,2480.315 402.814,2466.525 661.985,2074.947C819.805,1836.499 1177.033,1575.716 1467.872,1548.168L1467.872,2480.315L423.129,2480.315Z" style="fill:rgb(121,58,12);"/>
                </g>
                <g transform="matrix(-1,0,0,1,3729.444373,0)">
                    <path d="M1679.04,1426.981L1679.04,1545.568C1493.418,1585.097 1236.011,1677.222 1018.457,1915.034C791.847,2162.746 715.491,2322.199 649.528,2480.315L527.881,2480.315" style="fill:none;stroke:rgb(73,28,0);stroke-width:33.33px;"/>
                </g>
                <g>
                    <g transform="matrix(0.802309,0.199809,0.199809,0.79805,123.352719,-191.29004)">
                        <path d="M3159.503,2422.478L3039.332,2516.389" style="fill:none;stroke:rgb(57,24,0);stroke-width:50px;"/>
                    </g>
                    <g transform="matrix(0.802309,0.199809,0.199809,0.79805,84.527832,-267.984579)">
                        <path d="M3162.339,2411.09L3055.617,2509.642" style="fill:none;stroke:rgb(57,24,0);stroke-width:50px;"/>
                    </g>
                    <g transform="matrix(0.802309,0.199809,0.199809,0.79805,32.332937,-344.679118)">
                        <path d="M3162.339,2411.09L3061.283,2502.885" style="fill:none;stroke:rgb(57,24,0);stroke-width:50px;"/>
                    </g>
                    <g transform="matrix(0.82542,0.04802,0.34392,0.747347,-440.126917,170.659136)">
                        <path d="M3159.503,2422.478L3056.359,2509.594" style="fill:none;stroke:rgb(57,24,0);stroke-width:50px;"/>
                    </g>
                    <g transform="matrix(0.82542,0.04802,0.34392,0.747347,-492.462915,102.465533)">
                        <path d="M3162.339,2411.09L3058.906,2506.58" style="fill:none;stroke:rgb(57,24,0);stroke-width:50px;"/>
                    </g>
                    <g transform="matrix(0.82542,0.04802,0.34392,0.747347,-557.938395,36.743993)">
                        <path d="M3193.703,2373.442L3078.878,2489.618" style="fill:none;stroke:rgb(57,24,0);stroke-width:50px;"/>
                    </g>
                    <g transform="matrix(0.820971,-0.098135,0.470193,0.675076,-916.667421,568.724603)">
                        <path d="M3194.84,2383.433L3063.865,2512.068" style="fill:none;stroke:rgb(57,24,0);stroke-width:50px;"/>
                    </g>
                    <g transform="matrix(0.820971,-0.098135,0.470193,0.675076,-980.197789,510.816775)">
                        <path d="M3184.608,2365.412L3064.914,2501.173" style="fill:none;stroke:rgb(57,24,0);stroke-width:50px;"/>
                    </g>
                    <g transform="matrix(0.820971,-0.098135,0.470193,0.675076,-1056.226693,457.656968)">
                        <path d="M3192.032,2320.732L3084.506,2445.639" style="fill:none;stroke:rgb(57,24,0);stroke-width:50px;"/>
                    </g>
                    <g transform="matrix(0.773198,-0.292896,0.618886,0.542022,-1380.158944,1280.235146)">
                        <path d="M3194.84,2383.433L3063.865,2512.068" style="fill:none;stroke:rgb(57,24,0);stroke-width:50px;"/>
                    </g>
                    <g transform="matrix(0.773198,-0.292896,0.618886,0.542022,-1455.761949,1239.325371)">
                        <path d="M3184.608,2365.412L3064.914,2501.173" style="fill:none;stroke:rgb(57,24,0);stroke-width:50px;"/>
                    </g>
                    <g transform="matrix(0.773198,-0.292896,0.618886,0.542022,-1542.352799,1206.032968)">
                        <path d="M3192.032,2320.732L3084.506,2445.639" style="fill:none;stroke:rgb(57,24,0);stroke-width:50px;"/>
                    </g>
                    <g transform="matrix(0.709845,-0.423962,0.704355,0.425079,-1695.43031,1819.806819)">
                        <path d="M3194.84,2383.433L3063.865,2512.068" style="fill:none;stroke:rgb(57,24,0);stroke-width:50px;"/>
                    </g>
                    <g transform="matrix(0.709845,-0.423962,0.704355,0.425079,-1777.036364,1792.790599)">
                        <path d="M3184.608,2365.412L3064.914,2501.173" style="fill:none;stroke:rgb(57,24,0);stroke-width:50px;"/>
                    </g>
                </g>
                <g transform="matrix(-1,0,0,1,3729.444373,13.315018)">
                    <path d="M527.881,2480.315C527.881,2480.315 553.045,2400.72 685.577,2158.728C822.932,1907.932 1148.947,1512.782 1679.04,1426.981" style="fill:none;stroke:rgb(57,24,0);stroke-width:50px;"/>
                </g>
                <g transform="matrix(-1,0,0,1,3729.444373,0)">
                    <path d="M527.881,2480.315C527.881,2480.315 553.045,2400.72 685.577,2158.728C822.932,1907.932 1148.947,1512.782 1679.04,1426.981" style="fill:none;stroke:rgb(73,28,0);stroke-width:50px;"/>
                </g>
            </g>
            <g id="Oberdeck1" serif:id="Oberdeck" transform="matrix(1,0,0,1,0,644.946357)">
                <g transform="matrix(-0.843212,0,0,0.40104,3262.991356,884.683361)">
                    <path d="M423.129,2480.315C423.129,2480.315 402.814,2466.525 661.985,2074.947C819.805,1836.499 1165.723,1575.716 1456.562,1548.168L1456.562,2480.315L423.129,2480.315Z" style="fill:rgb(131,81,35);"/>
                </g>
                <g transform="matrix(-1.843171,0,0,1.795,5145.162535,-1285.295619)">
                    <path d="M1679.04,1426.981L1679.04,1545.568C1492.935,1548.626 1330.528,1638.708 1234.066,1748.165" style="fill:none;stroke:rgb(49,21,6);stroke-width:36.65px;"/>
                </g>
                <g transform="matrix(1.843171,0,0,1.795,-1728.841954,-1285.295619)">
                    <g transform="matrix(0.773198,-0.292896,0.618886,0.542022,-1455.761949,1239.325371)">
                        <path d="M3184.608,2365.412L3064.914,2501.173" style="fill:none;stroke:rgb(57,24,0);stroke-width:54.3px;"/>
                    </g>
                    <g transform="matrix(0.709845,-0.423962,0.704355,0.425079,-1695.43031,1819.806819)">
                        <path d="M3194.84,2383.433L3084.534,2491.238" style="fill:none;stroke:rgb(57,24,0);stroke-width:54.25px;"/>
                    </g>
                    <g transform="matrix(0.709845,-0.423962,0.704355,0.425079,-1777.036364,1792.790599)">
                        <path d="M3139.157,2270.34L3014.107,2396.364" style="fill:none;stroke:rgb(57,24,0);stroke-width:54.25px;"/>
                    </g>
                </g>
                <g transform="matrix(-1.843171,0,0,1.795,5145.162535,-1266.101927)">
                    <path d="M1083.486,1726.786C1178.999,1580.639 1417.998,1425.799 1679.04,1426.981" style="fill:none;stroke:rgb(57,24,0);stroke-width:54.97px;"/>
                </g>
                <g transform="matrix(-1.843171,0,0,1.795,5145.162535,-1285.295619)">
                    <path d="M1083.486,1726.786C1178.999,1580.639 1417.998,1425.799 1679.04,1426.981" style="fill:none;stroke:rgb(73,28,0);stroke-width:54.97px;"/>
                </g>
            </g>
        </g>
    </g>
</svg>
