<?xml version="1.0" encoding="UTF-8" standalone="no"?>
<!DOCTYPE svg PUBLIC "-//W3C//DTD SVG 1.1//EN" "http://www.w3.org/Graphics/SVG/1.1/DTD/svg11.dtd">
<svg width="100%" height="100%" viewBox="0 0 3376 1445" version="1.1" xmlns="http://www.w3.org/2000/svg" xmlns:xlink="http://www.w3.org/1999/xlink" xml:space="preserve" xmlns:serif="http://www.serif.com/" style="fill-rule:evenodd;clip-rule:evenodd;stroke-linecap:round;stroke-linejoin:round;stroke-miterlimit:1.5;">
    <g transform="matrix(1,0,0,1,-66.016365,-1052.732693)">
        <g transform="matrix(1.339476,0,0,1.339476,-992.529501,-842.006222)">
            <g transform="matrix(-1,0,0,1,3502.672824,0)">
                <path d="M358.115,2480.315C358.115,2480.315 343,2448.321 552.76,2176.37C727.4,1949.952 1161.43,1573.116 1452.268,1545.568L1452.268,2480.315L358.115,2480.315Z" style="fill:rgb(121,58,12);"/>
            </g>
            <g transform="matrix(-1,0,0,1,3729.444373,0)">
                <path d="M431.347,2480.315C431.347,2480.315 434.874,2432.343 600.694,2187.022C760.824,1950.12 1148.947,1512.782 1679.04,1426.981L1679.04,1545.568C1493.418,1585.097 1209.517,1735.387 1015.369,1928.99C777.64,2166.051 650.61,2322.199 584.646,2480.315L431.347,2480.315Z" style="fill:none;stroke:rgb(73,28,0);stroke-width:24.89px;"/>
            </g>
            <g transform="matrix(0.802309,0.199809,0.199809,0.79805,123.352719,-191.29004)">
                <path d="M2891.097,1799.611L2738.692,1953.648" style="fill:none;stroke:rgb(73,28,0);stroke-width:24.89px;"/>
            </g>
            <g transform="matrix(0.802309,0.199809,0.199809,0.79805,414.618915,120.780885)">
                <path d="M2887.546,1827.195L2738.692,1953.648" style="fill:none;stroke:rgb(73,28,0);stroke-width:24.89px;"/>
            </g>
            <g transform="matrix(0.856076,0.145466,0.145466,0.852976,-226.640035,-370.795165)">
                <path d="M2832.688,1795.522L2738.692,1953.648" style="fill:none;stroke:rgb(73,28,0);stroke-width:24.89px;"/>
            </g>
        </g>
        <g transform="matrix(-1.339476,0,0,1.339476,4500.403516,-842.006222)">
            <g transform="matrix(-1,0,0,1,3502.672824,0)">
                <path d="M358.115,2480.315C358.115,2480.315 343,2448.321 552.76,2176.37C727.4,1949.952 1161.43,1573.116 1452.268,1545.568L1452.268,2480.315L358.115,2480.315Z" style="fill:rgb(121,58,12);"/>
            </g>
            <g transform="matrix(-1,0,0,1,3729.444373,0)">
                <path d="M431.347,2480.315C431.347,2480.315 434.874,2432.343 600.694,2187.022C760.824,1950.12 1148.947,1512.782 1679.04,1426.981L1679.04,1545.568C1493.418,1585.097 1209.517,1735.387 1015.369,1928.99C777.64,2166.051 650.61,2322.199 584.646,2480.315L431.347,2480.315Z" style="fill:none;stroke:rgb(73,28,0);stroke-width:24.89px;"/>
            </g>
            <g transform="matrix(0.802309,0.199809,0.199809,0.79805,123.352719,-191.29004)">
                <path d="M2891.097,1799.611L2738.692,1953.648" style="fill:none;stroke:rgb(73,28,0);stroke-width:24.89px;"/>
            </g>
            <g transform="matrix(0.802309,0.199809,0.199809,0.79805,414.618915,120.780885)">
                <path d="M2887.546,1827.195L2738.692,1953.648" style="fill:none;stroke:rgb(73,28,0);stroke-width:24.89px;"/>
            </g>
            <g transform="matrix(0.856076,0.145466,0.145466,0.852976,-226.640035,-370.795165)">
                <path d="M2832.688,1795.522L2738.692,1953.648" style="fill:none;stroke:rgb(73,28,0);stroke-width:24.89px;"/>
            </g>
        </g>
    </g>
</svg>
